<svg width="108" height="23" viewBox="0 0 108 23" fill="none" xmlns="http://www.w3.org/2000/svg">
<g clip-path="url(#clip0_26_32)">
<path d="M11.4564 17.3314L11.2333 17.1964L11.01 17.331L6.19114 20.2339L6.19037 20.2343C5.63654 20.5696 4.95862 20.0759 5.1047 19.4477L6.38193 13.9672L6.44109 13.7134L6.2441 13.5427L1.98264 9.85021L1.98249 9.85008C1.49246 9.42587 1.7586 8.626 2.39587 8.57531L2.39587 8.57531L2.39815 8.57512L8.00655 8.09904L8.26589 8.07703L8.36764 7.83747L10.5622 2.67031L10.5629 2.66863C10.8095 2.08115 11.6562 2.08115 11.9028 2.66863L11.9034 2.66998L14.098 7.84876L14.1996 8.08862L14.4592 8.11065L20.0676 8.58674L20.0699 8.58692C20.7071 8.63761 20.9733 9.43748 20.4833 9.86169L20.4831 9.86182L16.2216 13.5543L16.0247 13.725L16.0838 13.9788L17.361 19.4593C17.5071 20.0875 16.8292 20.5812 16.2754 20.246L16.2753 20.2459L11.4564 17.3314Z" fill="#FFC000" stroke="#FFC000" stroke-width="0.864"/>
</g>
<path d="M33.0565 17.3314L32.8333 17.1965L32.61 17.331L27.7911 20.2339L27.7904 20.2344C27.2365 20.5696 26.5586 20.0759 26.7047 19.4478L27.9819 13.9673L28.0411 13.7134L27.8441 13.5428L23.5827 9.85027L23.5825 9.85014C23.0925 9.42593 23.3586 8.62606 23.9959 8.57537L23.9959 8.57537L23.9982 8.57518L29.6066 8.0991L29.8659 8.07709L29.9676 7.83753L32.1622 2.67037L32.1629 2.66869C32.4095 2.08121 33.2562 2.08121 33.5028 2.66869L33.5034 2.67004L35.698 7.84882L35.7996 8.08868L36.0592 8.11071L41.6676 8.5868L41.6699 8.58698C42.3072 8.63767 42.5733 9.43754 42.0833 9.86175L42.0831 9.86188L37.8217 13.5544L37.6247 13.7251L37.6838 13.9789L38.9611 19.4594C39.1071 20.0875 38.4292 20.5812 37.8754 20.246L37.8753 20.2459L33.0565 17.3314Z" fill="#FFC000" stroke="#FFC000" stroke-width="0.864"/>
<g clip-path="url(#clip1_26_32)">
<path d="M54.6564 17.3315L54.4332 17.1965L54.2099 17.3311L49.391 20.234L49.3903 20.2344C48.8364 20.5696 48.1585 20.076 48.3046 19.4478L49.5818 13.9673L49.641 13.7135L49.444 13.5428L45.1825 9.8503L45.1824 9.85017C44.6924 9.42596 44.9585 8.62609 45.5958 8.5754L45.5958 8.5754L45.5981 8.57521L51.2065 8.09913L51.4658 8.07712L51.5675 7.83756L53.7621 2.6704L53.7628 2.66872C54.0094 2.08124 54.8561 2.08124 55.1027 2.66872L55.1033 2.67007L57.2979 7.84885L57.3995 8.08871L57.6591 8.11075L63.2675 8.58683L63.2698 8.58701C63.9071 8.6377 64.1732 9.43757 63.6832 9.86178L63.683 9.86191L59.4216 13.5544L59.2246 13.7251L59.2837 13.9789L60.561 19.4594C60.707 20.0876 60.0291 20.5813 59.4753 20.246L59.4752 20.246L54.6564 17.3315Z" fill="#FFC000" stroke="#FFC000" stroke-width="0.864"/>
</g>
<path d="M85.594 8.7099C85.4899 8.39077 85.2943 8.10927 85.0315 7.90039C84.7687 7.69151 84.4503 7.56446 84.116 7.53503L79.2349 7.11286L77.3253 2.56236C77.194 2.25291 76.9744 1.98896 76.6941 1.80341C76.4138 1.61786 76.085 1.51892 75.7488 1.51892C75.4126 1.51892 75.0839 1.61786 74.8036 1.80341C74.5232 1.98896 74.3037 2.25291 74.1723 2.56236L72.2602 7.11286L67.3791 7.53503C67.0429 7.56286 66.7224 7.68937 66.4579 7.89868C66.1933 8.10799 65.9964 8.39077 65.892 8.71154C65.7875 9.03231 65.7801 9.37679 65.8707 9.70175C65.9613 10.0267 66.1459 10.3177 66.4012 10.5381L70.1108 13.775L68.9976 18.591C68.9212 18.9189 68.9433 19.2621 69.0609 19.5776C69.1785 19.8931 69.3865 20.1669 69.6589 20.3648C69.9313 20.5628 70.256 20.676 70.5924 20.6904C70.9288 20.7048 71.262 20.6197 71.5503 20.4458L75.7463 17.8974L79.9422 20.4458C80.2305 20.6194 80.5636 20.7043 80.8999 20.6898C81.2361 20.6752 81.5606 20.562 81.8328 20.3641C82.1051 20.1662 82.313 19.8925 82.4306 19.5772C82.5482 19.2618 82.5703 18.9188 82.4941 18.591L81.3809 13.775L85.0905 10.5381C85.3451 10.3169 85.5288 10.0253 85.6183 9.70007C85.7079 9.37482 85.6994 9.03035 85.594 8.7099ZM79.878 12.3595C79.6432 12.5639 79.4685 12.8283 79.3727 13.1245C79.2768 13.4207 79.2636 13.7374 79.3343 14.0405L80.3096 18.2639L76.6326 16.0306C76.3655 15.868 76.0589 15.782 75.7463 15.782C75.4336 15.782 75.127 15.868 74.86 16.0306L71.1829 18.2639L72.1583 14.0405C72.229 13.7374 72.2157 13.4207 72.1199 13.1245C72.0241 12.8283 71.8493 12.5639 71.6145 12.3595L68.3528 9.51399L72.6464 9.14234C72.9573 9.11572 73.2549 9.00432 73.5069 8.82027C73.7589 8.63622 73.9556 8.38656 74.0756 8.09849L75.7463 4.11744L77.4169 8.09849C77.5369 8.38656 77.7336 8.63622 77.9856 8.82027C78.2376 9.00432 78.5352 9.11572 78.8461 9.14234L83.1397 9.51399L79.878 12.3595Z" fill="#FCFCFC"/>
<path d="M107.194 8.7099C107.09 8.39077 106.894 8.10927 106.631 7.90039C106.369 7.69151 106.05 7.56446 105.716 7.53503L100.835 7.11286L98.9253 2.56236C98.794 2.25291 98.5744 1.98896 98.2941 1.80341C98.0138 1.61786 97.685 1.51892 97.3488 1.51892C97.0126 1.51892 96.6839 1.61786 96.4036 1.80341C96.1232 1.98896 95.9037 2.25291 95.7723 2.56236L93.8602 7.11286L88.9791 7.53503C88.6429 7.56286 88.3224 7.68937 88.0579 7.89868C87.7933 8.10799 87.5964 8.39077 87.492 8.71154C87.3875 9.03231 87.3801 9.37679 87.4707 9.70175C87.5613 10.0267 87.7459 10.3177 88.0012 10.5381L91.7108 13.775L90.5976 18.591C90.5212 18.9189 90.5433 19.2621 90.6609 19.5776C90.7785 19.8931 90.9865 20.1669 91.2589 20.3648C91.5313 20.5628 91.856 20.676 92.1924 20.6904C92.5288 20.7048 92.862 20.6197 93.1503 20.4458L97.3463 17.8974L101.542 20.4458C101.831 20.6194 102.164 20.7043 102.5 20.6898C102.836 20.6752 103.161 20.562 103.433 20.3641C103.705 20.1662 103.913 19.8925 104.031 19.5772C104.148 19.2618 104.17 18.9188 104.094 18.591L102.981 13.775L106.69 10.5381C106.945 10.3169 107.129 10.0253 107.218 9.70007C107.308 9.37482 107.299 9.03035 107.194 8.7099ZM101.478 12.3595C101.243 12.5639 101.068 12.8283 100.973 13.1245C100.877 13.4207 100.864 13.7374 100.934 14.0405L101.91 18.2639L98.2326 16.0306C97.9655 15.868 97.6589 15.782 97.3463 15.782C97.0336 15.782 96.727 15.868 96.46 16.0306L92.7829 18.2639L93.7583 14.0405C93.829 13.7374 93.8157 13.4207 93.7199 13.1245C93.6241 12.8283 93.4493 12.5639 93.2145 12.3595L89.9528 9.51399L94.2464 9.14234C94.5573 9.11572 94.8549 9.00432 95.1069 8.82027C95.3589 8.63622 95.5556 8.38656 95.6756 8.09849L97.3463 4.11744L99.0169 8.09849C99.1369 8.38656 99.3336 8.63622 99.5856 8.82027C99.8376 9.00432 100.135 9.11572 100.446 9.14234L104.74 9.51399L101.478 12.3595Z" fill="#FCFCFC"/>
<defs>
<clipPath id="clip0_26_32">
<rect width="21.6" height="21.6" fill="white" transform="translate(0 0.5)"/>
</clipPath>
<clipPath id="clip1_26_32">
<rect width="21.6" height="21.6" fill="white" transform="translate(43.2 0.500061)"/>
</clipPath>
</defs>
</svg>
