<svg width="108" height="22" viewBox="0 0 108 22" fill="none" xmlns="http://www.w3.org/2000/svg">
<g clip-path="url(#clip0_26_56)">
<path d="M11.4564 16.8314L11.2333 16.6964L11.01 16.831L6.19114 19.7339L6.19037 19.7343C5.63654 20.0696 4.95862 19.5759 5.1047 18.9477L6.38193 13.4672L6.44109 13.2134L6.2441 13.0427L1.98264 9.35021L1.98249 9.35008C1.49246 8.92587 1.7586 8.126 2.39587 8.07531L2.39587 8.07531L2.39815 8.07512L8.00655 7.59904L8.26589 7.57703L8.36764 7.33747L10.5622 2.17031L10.5629 2.16863C10.8095 1.58115 11.6562 1.58115 11.9028 2.16863L11.9034 2.16998L14.098 7.34876L14.1996 7.58862L14.4592 7.61065L20.0676 8.08674L20.0699 8.08692C20.7071 8.13761 20.9733 8.93748 20.4833 9.36169L20.4831 9.36182L16.2216 13.0543L16.0247 13.225L16.0838 13.4788L17.361 18.9593C17.5071 19.5875 16.8292 20.0812 16.2754 19.746L16.2753 19.7459L11.4564 16.8314Z" fill="#FFC000" stroke="#FFC000" stroke-width="0.864"/>
</g>
<path d="M33.0564 16.8314L32.8333 16.6965L32.61 16.831L27.7911 19.7339L27.7904 19.7344C27.2365 20.0696 26.5586 19.5759 26.7047 18.9478L27.9819 13.4673L28.0411 13.2134L27.8441 13.0428L23.5826 9.35027L23.5825 9.35014C23.0925 8.92593 23.3586 8.12606 23.9959 8.07537L23.9959 8.07537L23.9981 8.07518L29.6066 7.5991L29.8659 7.57709L29.9676 7.33753L32.1622 2.17037L32.1629 2.16869C32.4095 1.58121 33.2562 1.58121 33.5028 2.16869L33.5034 2.17004L35.698 7.34882L35.7996 7.58868L36.0592 7.61071L41.6676 8.0868L41.6699 8.08698C42.3071 8.13767 42.5733 8.93754 42.0833 9.36175L42.0831 9.36188L37.8216 13.0544L37.6247 13.2251L37.6838 13.4789L38.961 18.9594C39.1071 19.5875 38.4292 20.0812 37.8754 19.746L37.8753 19.7459L33.0564 16.8314Z" fill="#FFC000" stroke="#FFC000" stroke-width="0.864"/>
<g clip-path="url(#clip1_26_56)">
<path d="M54.6564 16.8314L54.4332 16.6965L54.2099 16.831L49.391 19.7339L49.3903 19.7344C48.8364 20.0696 48.1585 19.5759 48.3046 18.9478L49.5818 13.4673L49.641 13.2134L49.444 13.0428L45.1826 9.35027L45.1824 9.35014C44.6924 8.92593 44.9585 8.12606 45.5958 8.07537L45.5958 8.07537L45.5981 8.07518L51.2065 7.5991L51.4658 7.57709L51.5675 7.33753L53.7621 2.17037L53.7628 2.16869C54.0094 1.58121 54.8561 1.58121 55.1027 2.16869L55.1033 2.17004L57.2979 7.34882L57.3995 7.58868L57.6591 7.61071L63.2675 8.0868L63.2698 8.08698C63.9071 8.13767 64.1732 8.93754 63.6832 9.36175L63.683 9.36188L59.4216 13.0544L59.2246 13.2251L59.2837 13.4789L60.561 18.9594C60.707 19.5875 60.0291 20.0812 59.4753 19.746L59.4752 19.7459L54.6564 16.8314Z" fill="#FFC000" stroke="#FFC000" stroke-width="0.864"/>
</g>
<path d="M76.2545 16.8314L76.0314 16.6965L75.808 16.831L70.9892 19.7339L70.9884 19.7344C70.4346 20.0696 69.7567 19.5759 69.9028 18.9478L71.18 13.4673L71.2391 13.2134L71.0422 13.0428L66.7807 9.35027L66.7805 9.35014C66.2905 8.92593 66.5567 8.12606 67.1939 8.07537L67.1939 8.07537L67.1962 8.07518L72.8046 7.5991L73.0639 7.57709L73.1657 7.33753L75.3603 2.17037L75.361 2.16869C75.6076 1.58121 76.4543 1.58121 76.7009 2.16869L76.7014 2.17004L78.896 7.34882L78.9977 7.58868L79.2572 7.61071L84.8656 8.0868L84.8679 8.08698C85.5052 8.13767 85.7713 8.93754 85.2813 9.36175L85.2812 9.36188L81.0197 13.0544L80.8227 13.2251L80.8819 13.4789L82.1591 18.9594C82.3052 19.5875 81.6273 20.0812 81.0734 19.746L81.0733 19.7459L76.2545 16.8314Z" fill="#FFC000" stroke="#FFC000" stroke-width="0.864"/>
<path d="M107.194 8.20996C107.09 7.89083 106.894 7.60934 106.631 7.40046C106.369 7.19157 106.05 7.06452 105.716 7.03509L100.835 6.61292L98.9253 2.06242C98.794 1.75297 98.5744 1.48902 98.2941 1.30347C98.0138 1.11792 97.685 1.01898 97.3488 1.01898C97.0126 1.01898 96.6839 1.11792 96.4036 1.30347C96.1232 1.48902 95.9037 1.75297 95.7723 2.06242L93.8602 6.61292L88.9791 7.03509C88.6429 7.06292 88.3224 7.18943 88.0579 7.39874C87.7933 7.60805 87.5964 7.89083 87.492 8.2116C87.3875 8.53238 87.3801 8.87685 87.4707 9.20181C87.5613 9.52677 87.7459 9.81774 88.0012 10.0382L91.7108 13.2751L90.5976 18.0911C90.5212 18.419 90.5433 18.7622 90.6609 19.0777C90.7785 19.3932 90.9865 19.667 91.2589 19.8649C91.5313 20.0628 91.856 20.1761 92.1924 20.1905C92.5288 20.2049 92.862 20.1198 93.1503 19.9459L97.3463 17.3974L101.542 19.9459C101.831 20.1195 102.164 20.2044 102.5 20.1898C102.836 20.1753 103.161 20.062 103.433 19.8641C103.705 19.6663 103.913 19.3926 104.031 19.0772C104.148 18.7619 104.17 18.4189 104.094 18.0911L102.981 13.2751L106.69 10.0382C106.945 9.81694 107.129 9.52539 107.218 9.20013C107.308 8.87488 107.299 8.53041 107.194 8.20996ZM101.478 11.8596C101.243 12.0639 101.068 12.3284 100.973 12.6246C100.877 12.9207 100.864 13.2374 100.934 13.5406L101.91 17.7639L98.2326 15.5307C97.9655 15.3681 97.6589 15.282 97.3463 15.282C97.0336 15.282 96.727 15.3681 96.46 15.5307L92.7829 17.7639L93.7583 13.5406C93.829 13.2374 93.8157 12.9207 93.7199 12.6246C93.6241 12.3284 93.4493 12.0639 93.2145 11.8596L89.9528 9.01405L94.2464 8.6424C94.5573 8.61578 94.8549 8.50438 95.1069 8.32033C95.3589 8.13628 95.5556 7.88662 95.6756 7.59855L97.3463 3.6175L99.0169 7.59855C99.1369 7.88662 99.3336 8.13628 99.5856 8.32033C99.8376 8.50438 100.135 8.61578 100.446 8.6424L104.74 9.01405L101.478 11.8596Z" fill="#FCFCFC"/>
<defs>
<clipPath id="clip0_26_56">
<rect width="21.6" height="21.6" fill="white"/>
</clipPath>
<clipPath id="clip1_26_56">
<rect width="21.6" height="21.6" fill="white" transform="translate(43.2 6.10352e-05)"/>
</clipPath>
</defs>
</svg>
