<svg width="108" height="22" viewBox="0 0 108 22" fill="none" xmlns="http://www.w3.org/2000/svg">
<g clip-path="url(#clip0_26_44)">
<path d="M11.4564 16.8314L11.2333 16.6964L11.01 16.831L6.19114 19.7339L6.19037 19.7343C5.63654 20.0696 4.95862 19.5759 5.1047 18.9477L6.38193 13.4672L6.44109 13.2134L6.2441 13.0427L1.98264 9.35021L1.98249 9.35008C1.49246 8.92587 1.7586 8.126 2.39587 8.07531L2.39587 8.07531L2.39815 8.07512L8.00655 7.59904L8.26589 7.57703L8.36764 7.33747L10.5622 2.17031L10.5629 2.16863C10.8095 1.58115 11.6562 1.58115 11.9028 2.16863L11.9034 2.16998L14.098 7.34876L14.1996 7.58862L14.4592 7.61065L20.0676 8.08674L20.0699 8.08692C20.7071 8.13761 20.9733 8.93748 20.4833 9.36169L20.4831 9.36182L16.2216 13.0543L16.0247 13.225L16.0838 13.4788L17.361 18.9593C17.5071 19.5875 16.8292 20.0812 16.2754 19.746L16.2753 19.7459L11.4564 16.8314Z" fill="#FFC000" stroke="#FFC000" stroke-width="0.864"/>
</g>
<path d="M33.0564 16.8314L32.8333 16.6965L32.61 16.831L27.7911 19.7339L27.7904 19.7344C27.2365 20.0696 26.5586 19.5759 26.7047 18.9478L27.9819 13.4673L28.0411 13.2134L27.8441 13.0428L23.5826 9.35027L23.5825 9.35014C23.0925 8.92593 23.3586 8.12606 23.9959 8.07537L23.9959 8.07537L23.9981 8.07518L29.6066 7.5991L29.8659 7.57709L29.9676 7.33753L32.1622 2.17037L32.1629 2.16869C32.4095 1.58121 33.2562 1.58121 33.5028 2.16869L33.5034 2.17004L35.698 7.34882L35.7996 7.58868L36.0592 7.61071L41.6676 8.0868L41.6699 8.08698C42.3071 8.13767 42.5733 8.93754 42.0833 9.36175L42.0831 9.36188L37.8216 13.0544L37.6247 13.2251L37.6838 13.4789L38.961 18.9594C39.1071 19.5875 38.4292 20.0812 37.8754 19.746L37.8753 19.7459L33.0564 16.8314Z" fill="#FFC000" stroke="#FFC000" stroke-width="0.864"/>
<g clip-path="url(#clip1_26_44)">
<path d="M54.6564 16.8315L54.4332 16.6965L54.2099 16.8311L49.391 19.734L49.3903 19.7344C48.8364 20.0696 48.1585 19.576 48.3046 18.9478L49.5818 13.4673L49.641 13.2135L49.444 13.0428L45.1826 9.3503L45.1824 9.35017C44.6924 8.92596 44.9585 8.12609 45.5958 8.0754L45.5958 8.0754L45.5981 8.07521L51.2065 7.59913L51.4658 7.57712L51.5675 7.33756L53.7621 2.1704L53.7628 2.16872C54.0094 1.58124 54.8561 1.58124 55.1027 2.16872L55.1033 2.17007L57.2979 7.34885L57.3995 7.58871L57.6591 7.61075L63.2675 8.08683L63.2698 8.08701C63.9071 8.1377 64.1732 8.93757 63.6832 9.36178L63.683 9.36191L59.4216 13.0544L59.2246 13.2251L59.2837 13.4789L60.561 18.9594C60.707 19.5876 60.0291 20.0813 59.4753 19.746L59.4752 19.746L54.6564 16.8315Z" fill="#FFC000" stroke="#FFC000" stroke-width="0.864"/>
</g>
<path d="M76.2545 16.8314L76.0314 16.6965L75.808 16.831L70.9892 19.7339L70.9884 19.7344C70.4346 20.0696 69.7567 19.5759 69.9028 18.9478L71.18 13.4673L71.2391 13.2134L71.0422 13.0428L66.7807 9.35027L66.7805 9.35014C66.2905 8.92593 66.5567 8.12606 67.1939 8.07537L67.1939 8.07537L67.1962 8.07518L72.8046 7.5991L73.0639 7.57709L73.1657 7.33753L75.3603 2.17037L75.361 2.16869C75.6076 1.58121 76.4543 1.58121 76.7009 2.16869L76.7014 2.17004L78.896 7.34882L78.9977 7.58868L79.2572 7.61071L84.8656 8.0868L84.8679 8.08698C85.5052 8.13767 85.7713 8.93754 85.2813 9.36175L85.2812 9.36188L81.0197 13.0544L80.8227 13.2251L80.8819 13.4789L82.1591 18.9594C82.3052 19.5875 81.6273 20.0812 81.0734 19.746L81.0733 19.7459L76.2545 16.8314Z" fill="#FFC000" stroke="#FFC000" stroke-width="0.864"/>
<path d="M97.8545 16.8314L97.6314 16.6964L97.408 16.831L92.5892 19.7339L92.5884 19.7343C92.0346 20.0696 91.3567 19.5759 91.5028 18.9477L92.78 13.4672L92.8391 13.2134L92.6422 13.0427L88.3807 9.35021L88.3805 9.35008C87.8905 8.92587 88.1566 8.126 88.7939 8.07531L88.7939 8.07531L88.7962 8.07512L94.4046 7.59904L94.6639 7.57703L94.7657 7.33747L96.9603 2.17031L96.961 2.16863C97.2076 1.58115 98.0543 1.58115 98.3009 2.16863L98.3014 2.16998L100.496 7.34876L100.598 7.58862L100.857 7.61065L106.466 8.08674L106.468 8.08692C107.105 8.13761 107.371 8.93748 106.881 9.36169L106.881 9.36182L102.62 13.0543L102.423 13.225L102.482 13.4788L103.759 18.9593C103.905 19.5875 103.227 20.0812 102.673 19.746L102.673 19.7459L97.8545 16.8314Z" fill="#FFC000" stroke="#FFC000" stroke-width="0.864"/>
<defs>
<clipPath id="clip0_26_44">
<rect width="21.6" height="21.6" fill="white"/>
</clipPath>
<clipPath id="clip1_26_44">
<rect width="21.6" height="21.6" fill="white" transform="translate(43.2 6.10352e-05)"/>
</clipPath>
</defs>
</svg>
