<svg width="110" height="46" viewBox="0 0 110 46" fill="none" xmlns="http://www.w3.org/2000/svg">
<rect y="0.254883" width="110" height="45" rx="22.5" fill="#1F2133"/>
<path d="M31.68 20.8349C31.3707 20.1842 30.9227 19.6829 30.336 19.3309C29.7493 18.9682 29.0667 18.7869 28.288 18.7869C27.5093 18.7869 26.8053 18.9682 26.176 19.3309C25.5573 19.6829 25.0667 20.1949 24.704 20.8669C24.352 21.5282 24.176 22.2962 24.176 23.1709C24.176 24.0455 24.352 24.8135 24.704 25.4749C25.0667 26.1362 25.5573 26.6482 26.176 27.0109C26.8053 27.3629 27.5093 27.5389 28.288 27.5389C29.376 27.5389 30.272 27.2135 30.976 26.5629C31.68 25.9122 32.0907 25.0322 32.208 23.9229H27.76V22.7389H33.76V23.8589C33.6747 24.7762 33.3867 25.6189 32.896 26.3869C32.4053 27.1442 31.76 27.7469 30.96 28.1949C30.16 28.6322 29.2693 28.8509 28.288 28.8509C27.2533 28.8509 26.3093 28.6109 25.456 28.1309C24.6027 27.6402 23.9253 26.9629 23.424 26.0989C22.9333 25.2349 22.688 24.2589 22.688 23.1709C22.688 22.0829 22.9333 21.1069 23.424 20.2429C23.9253 19.3682 24.6027 18.6909 25.456 18.2109C26.3093 17.7202 27.2533 17.4749 28.288 17.4749C29.472 17.4749 30.5173 17.7682 31.424 18.3549C32.3413 18.9415 33.008 19.7682 33.424 20.8349H31.68ZM43.8451 24.0349C43.8451 24.3122 43.8291 24.6055 43.7971 24.9149H36.7891C36.8425 25.7789 37.1358 26.4562 37.6691 26.9469C38.2131 27.4269 38.8691 27.6669 39.6371 27.6669C40.2665 27.6669 40.7891 27.5229 41.2051 27.2349C41.6318 26.9362 41.9305 26.5415 42.1011 26.0509H43.6691C43.4345 26.8935 42.9651 27.5815 42.2611 28.1149C41.5571 28.6375 40.6825 28.8989 39.6371 28.8989C38.8051 28.8989 38.0585 28.7122 37.3971 28.3389C36.7465 27.9655 36.2345 27.4375 35.8611 26.7549C35.4878 26.0615 35.3011 25.2615 35.3011 24.3549C35.3011 23.4482 35.4825 22.6535 35.8451 21.9709C36.2078 21.2882 36.7145 20.7655 37.3651 20.4029C38.0265 20.0295 38.7838 19.8429 39.6371 19.8429C40.4691 19.8429 41.2051 20.0242 41.8451 20.3869C42.4851 20.7495 42.9758 21.2509 43.3171 21.8909C43.6691 22.5202 43.8451 23.2349 43.8451 24.0349ZM42.3411 23.7309C42.3411 23.1762 42.2185 22.7015 41.9731 22.3069C41.7278 21.9015 41.3918 21.5975 40.9651 21.3949C40.5491 21.1815 40.0851 21.0749 39.5731 21.0749C38.8371 21.0749 38.2078 21.3095 37.6851 21.7789C37.1731 22.2482 36.8798 22.8989 36.8051 23.7309H42.3411ZM47.703 21.1869V26.3549C47.703 26.7815 47.7937 27.0855 47.975 27.2669C48.1563 27.4375 48.471 27.5229 48.919 27.5229H49.991V28.7549H48.679C47.8683 28.7549 47.2603 28.5682 46.855 28.1949C46.4497 27.8215 46.247 27.2082 46.247 26.3549V21.1869H45.111V19.9869H46.247V17.7789H47.703V19.9869H49.991V21.1869H47.703ZM62.9327 26.2749H58.0687L57.1727 28.7549H55.6367L59.6687 17.6669H61.3487L65.3647 28.7549H63.8287L62.9327 26.2749ZM62.5167 25.0909L60.5007 19.4589L58.4847 25.0909H62.5167ZM68.738 21.6029C69.026 21.1015 69.4527 20.6855 70.018 20.3549C70.594 20.0135 71.2607 19.8429 72.018 19.8429C72.7967 19.8429 73.5007 20.0295 74.13 20.4029C74.77 20.7762 75.2713 21.3042 75.634 21.9869C75.9967 22.6589 76.178 23.4429 76.178 24.3389C76.178 25.2242 75.9967 26.0135 75.634 26.7069C75.2713 27.4002 74.77 27.9389 74.13 28.3229C73.5007 28.7069 72.7967 28.8989 72.018 28.8989C71.2713 28.8989 70.61 28.7335 70.034 28.4029C69.4687 28.0615 69.0367 27.6402 68.738 27.1389V32.9149H67.282V19.9869H68.738V21.6029ZM74.69 24.3389C74.69 23.6775 74.5567 23.1015 74.29 22.6109C74.0233 22.1202 73.6607 21.7469 73.202 21.4909C72.754 21.2349 72.258 21.1069 71.714 21.1069C71.1807 21.1069 70.6847 21.2402 70.226 21.5069C69.778 21.7629 69.4153 22.1415 69.138 22.6429C68.8713 23.1335 68.738 23.7042 68.738 24.3549C68.738 25.0162 68.8713 25.5975 69.138 26.0989C69.4153 26.5895 69.778 26.9682 70.226 27.2349C70.6847 27.4909 71.1807 27.6189 71.714 27.6189C72.258 27.6189 72.754 27.4909 73.202 27.2349C73.6607 26.9682 74.0233 26.5895 74.29 26.0989C74.5567 25.5975 74.69 25.0109 74.69 24.3389ZM79.7105 21.6029C79.9985 21.1015 80.4252 20.6855 80.9905 20.3549C81.5665 20.0135 82.2332 19.8429 82.9905 19.8429C83.7692 19.8429 84.4732 20.0295 85.1025 20.4029C85.7425 20.7762 86.2438 21.3042 86.6065 21.9869C86.9692 22.6589 87.1505 23.4429 87.1505 24.3389C87.1505 25.2242 86.9692 26.0135 86.6065 26.7069C86.2438 27.4002 85.7425 27.9389 85.1025 28.3229C84.4732 28.7069 83.7692 28.8989 82.9905 28.8989C82.2438 28.8989 81.5825 28.7335 81.0065 28.4029C80.4412 28.0615 80.0092 27.6402 79.7105 27.1389V32.9149H78.2545V19.9869H79.7105V21.6029ZM85.6625 24.3389C85.6625 23.6775 85.5292 23.1015 85.2625 22.6109C84.9958 22.1202 84.6332 21.7469 84.1745 21.4909C83.7265 21.2349 83.2305 21.1069 82.6865 21.1069C82.1532 21.1069 81.6572 21.2402 81.1985 21.5069C80.7505 21.7629 80.3878 22.1415 80.1105 22.6429C79.8438 23.1335 79.7105 23.7042 79.7105 24.3549C79.7105 25.0162 79.8438 25.5975 80.1105 26.0989C80.3878 26.5895 80.7505 26.9682 81.1985 27.2349C81.6572 27.4909 82.1532 27.6189 82.6865 27.6189C83.2305 27.6189 83.7265 27.4909 84.1745 27.2349C84.6332 26.9682 84.9958 26.5895 85.2625 26.0989C85.5292 25.5975 85.6625 25.0109 85.6625 24.3389Z" fill="white"/>
</svg>
