<svg width="15" height="16" viewBox="0 0 15 16" fill="none" xmlns="http://www.w3.org/2000/svg">
<g clip-path="url(#clip0_509_1052)">
<path d="M6 6.99597C6 6.59815 6.15804 6.21662 6.43934 5.93531C6.72064 5.65401 7.10218 5.49597 7.5 5.49597C7.89782 5.49597 8.27936 5.65401 8.56066 5.93531C8.84196 6.21662 9 6.59815 9 6.99597C9 7.3938 8.84196 7.77533 8.56066 8.05663C8.27936 8.33794 7.89782 8.49597 7.5 8.49597C7.10218 8.49597 6.72064 8.33794 6.43934 8.05663C6.15804 7.77533 6 7.3938 6 6.99597Z" fill="#808080"/>
<path fill-rule="evenodd" clip-rule="evenodd" d="M1 6.996C1.0008 5.2727 1.686 3.62028 2.90493 2.4021C4.12386 1.18392 5.7767 0.499735 7.5 0.5C11.089 0.5 14 3.409 14 6.996C14 9.67 12.662 11.789 11.228 13.221C10.5941 13.8577 9.88367 14.4132 9.113 14.875C8.791 15.065 8.49 15.215 8.228 15.317C7.981 15.415 7.722 15.491 7.5 15.491C7.278 15.491 7.019 15.415 6.772 15.317C6.46612 15.1925 6.17026 15.0448 5.887 14.875C5.11634 14.4132 4.40592 13.8576 3.772 13.221C2.338 11.789 1 9.67 1 6.996ZM7.5 4.497C6.83696 4.497 6.20107 4.76039 5.73223 5.22923C5.26339 5.69807 5 6.33396 5 6.997C5 7.66004 5.26339 8.29593 5.73223 8.76477C6.20107 9.23361 6.83696 9.497 7.5 9.497C8.16304 9.497 8.79893 9.23361 9.26777 8.76477C9.73661 8.29593 10 7.66004 10 6.997C10 6.33396 9.73661 5.69807 9.26777 5.22923C8.79893 4.76039 8.16304 4.497 7.5 4.497Z" fill="#808080"/>
</g>
<defs>
<clipPath id="clip0_509_1052">
<rect width="15" height="15" fill="white" transform="translate(0 0.5)"/>
</clipPath>
</defs>
</svg>
