<svg width="24" height="25" viewBox="0 0 24 25" fill="none" xmlns="http://www.w3.org/2000/svg">
<path d="M15.515 21.0413C14.3748 21.5253 13.2084 21.7633 12.0158 21.7553C10.8232 21.7473 9.69428 21.5276 8.62903 21.0962C7.56379 20.6648 6.5991 20.0386 5.73497 19.2177C4.87084 18.3967 4.19713 17.4153 3.71385 16.2733C3.22856 15.13 2.99017 13.9627 2.99868 12.7714C3.00719 11.58 3.22727 10.452 3.65893 9.38737C4.0906 8.32274 4.71691 7.35836 5.53786 6.49423C6.35881 5.63009 7.34013 4.95608 8.48182 4.47219C9.62508 3.9869 10.7924 3.74851 11.9838 3.75702C13.1751 3.76552 14.3034 3.98548 15.3687 4.41688C16.4339 4.84828 17.3976 5.4738 18.2597 6.29343C19.1219 7.11306 19.7963 8.0953 20.2829 9.24015C20.7669 10.3804 21.0049 11.5467 20.9969 12.7393C20.989 13.9319 20.7693 15.0608 20.3379 16.1261C19.9065 17.1913 19.2812 18.1556 18.4621 19.019C17.643 19.8823 16.6606 20.5564 15.515 21.0413ZM15.1274 20.1281C15.3728 19.2048 15.529 18.3343 15.5961 17.5164C15.6632 16.6985 15.6305 15.8288 15.4979 14.9073L11.1145 16.768C11.7289 17.5399 12.3475 18.1885 12.9702 18.7136C13.5928 19.2387 14.3119 19.7102 15.1274 20.1281ZM13.897 20.4875C13.2525 20.1635 12.5947 19.704 11.9235 19.109C11.2525 18.5146 10.6667 17.8681 10.1659 17.1695L6.63488 18.6684C7.64871 19.5895 8.79501 20.211 10.0738 20.5329C11.3526 20.8548 12.6267 20.8398 13.896 20.4879M16.2396 19.493C17.374 18.8247 18.2699 17.9186 18.9272 16.7749C19.5846 15.6311 19.9338 14.3748 19.9748 13.0059L16.4456 14.504C16.5451 15.3866 16.576 16.2759 16.5384 17.1718C16.4999 18.0673 16.4003 18.8411 16.2396 19.493ZM5.86859 17.9073L9.58282 16.3307C9.35266 15.983 9.14741 15.6359 8.96706 15.2895C8.78547 14.9436 8.62136 14.5979 8.4747 14.2525C8.32805 13.907 8.19308 13.5489 8.0698 13.1783C7.94652 12.8076 7.83932 12.4186 7.7482 12.0111L4.03673 13.5866C4.07215 13.9481 4.14147 14.329 4.2447 14.7291C4.34792 15.1293 4.4778 15.5138 4.63436 15.8826C4.79091 16.2514 4.97695 16.612 5.19247 16.9645C5.40799 17.317 5.63367 17.6311 5.86951 17.9069M10.5042 15.9396L15.3259 13.8929C15.2356 13.4858 15.131 13.1029 15.0121 12.7442C14.8931 12.3855 14.7563 12.0213 14.6016 11.6517C14.4469 11.2821 14.2806 10.9305 14.1027 10.5968C13.9249 10.2631 13.7221 9.92187 13.4944 9.57312L8.67002 11.6209C8.76087 12.0278 8.86547 12.4107 8.9838 12.7697C9.10213 13.1286 9.23958 13.4925 9.39613 13.8613C9.55268 14.2301 9.71897 14.5818 9.89498 14.9163C10.071 15.2508 10.2747 15.5916 10.5042 15.9396ZM16.2473 13.5018L19.9606 11.9256C19.9252 11.564 19.856 11.1835 19.753 10.7839C19.6501 10.3844 19.5199 10.0001 19.3624 9.63088C19.205 9.26171 19.019 8.90107 18.8043 8.54895C18.5897 8.19682 18.364 7.8827 18.1273 7.60657L14.413 9.18317C14.6432 9.53088 14.8485 9.87794 15.0288 10.2243C15.2104 10.5702 15.3745 10.9159 15.5212 11.2614C15.6678 11.6069 15.8028 11.965 15.9261 12.3356C16.0494 12.7062 16.1566 13.0953 16.2477 13.5027M13.8318 8.34355L17.361 6.84549C16.3256 5.90603 15.1882 5.28074 13.9488 4.96962C12.7087 4.65876 11.4234 4.67204 10.0928 5.00944C10.762 5.39167 11.4226 5.87389 12.0746 6.45609C12.7266 7.03829 13.3123 7.66744 13.8318 8.34355ZM8.49929 10.6071L12.8827 8.74639C12.273 7.9855 11.6416 7.33154 10.9886 6.78453C10.3356 6.23752 9.62923 5.77112 8.86942 5.38533C8.61887 6.19927 8.46367 7.03139 8.40382 7.8817C8.34432 8.73114 8.37615 9.63959 8.49929 10.6071ZM4.02103 12.508L7.55025 11.0099C7.4251 10.1657 7.37941 9.3073 7.41316 8.43475C7.44691 7.5622 7.55879 6.75172 7.7488 6.00332C6.57038 6.73166 5.66651 7.65127 5.0372 8.76214C4.40789 9.873 4.06873 11.1214 4.01972 12.5074" fill="black"/>
</svg>
