<svg width="110" height="43" viewBox="0 0 110 43" fill="none" xmlns="http://www.w3.org/2000/svg">
<rect y="0.754883" width="110" height="42" rx="21" fill="#1F2133"/>
<path d="M32.768 27.8669C32.032 27.8669 31.3707 27.7389 30.784 27.4829C30.208 27.2162 29.7547 26.8535 29.424 26.3949C29.0933 25.9255 28.9227 25.3869 28.912 24.7789H30.464C30.5173 25.3015 30.7307 25.7442 31.104 26.1069C31.488 26.4589 32.0427 26.6349 32.768 26.6349C33.4613 26.6349 34.0053 26.4642 34.4 26.1229C34.8053 25.7709 35.008 25.3229 35.008 24.7789C35.008 24.3522 34.8907 24.0055 34.656 23.7389C34.4213 23.4722 34.128 23.2695 33.776 23.1309C33.424 22.9922 32.9493 22.8429 32.352 22.6829C31.616 22.4909 31.024 22.2989 30.576 22.1069C30.1387 21.9149 29.76 21.6162 29.44 21.2109C29.1307 20.7949 28.976 20.2402 28.976 19.5469C28.976 18.9389 29.1307 18.4002 29.44 17.9309C29.7493 17.4615 30.1813 17.0989 30.736 16.8429C31.3013 16.5869 31.9467 16.4589 32.672 16.4589C33.7173 16.4589 34.5707 16.7202 35.232 17.2429C35.904 17.7655 36.2827 18.4589 36.368 19.3229H34.768C34.7147 18.8962 34.4907 18.5229 34.096 18.2029C33.7013 17.8722 33.1787 17.7069 32.528 17.7069C31.92 17.7069 31.424 17.8669 31.04 18.1869C30.656 18.4962 30.464 18.9335 30.464 19.4989C30.464 19.9042 30.576 20.2349 30.8 20.4909C31.0347 20.7469 31.3173 20.9442 31.648 21.0829C31.9893 21.2109 32.464 21.3602 33.072 21.5309C33.808 21.7335 34.4 21.9362 34.848 22.1389C35.296 22.3309 35.68 22.6349 36 23.0509C36.32 23.4562 36.48 24.0109 36.48 24.7149C36.48 25.2589 36.336 25.7709 36.048 26.2509C35.76 26.7309 35.3333 27.1202 34.768 27.4189C34.2027 27.7175 33.536 27.8669 32.768 27.8669ZM39.5346 17.5629C39.2573 17.5629 39.0226 17.4669 38.8306 17.2749C38.6386 17.0829 38.5426 16.8482 38.5426 16.5709C38.5426 16.2935 38.6386 16.0589 38.8306 15.8669C39.0226 15.6749 39.2573 15.5789 39.5346 15.5789C39.8013 15.5789 40.0253 15.6749 40.2066 15.8669C40.3986 16.0589 40.4946 16.2935 40.4946 16.5709C40.4946 16.8482 40.3986 17.0829 40.2066 17.2749C40.0253 17.4669 39.8013 17.5629 39.5346 17.5629ZM40.2386 18.9869V27.7549H38.7826V18.9869H40.2386ZM46.4961 18.8429C47.2535 18.8429 47.9148 19.0082 48.4801 19.3389C49.0561 19.6695 49.4828 20.0855 49.7601 20.5869V18.9869H51.2321V27.9469C51.2321 28.7469 51.0615 29.4562 50.7201 30.0749C50.3788 30.7042 49.8881 31.1949 49.2481 31.5469C48.6188 31.8989 47.8828 32.0749 47.0401 32.0749C45.8881 32.0749 44.9281 31.8029 44.1601 31.2589C43.3921 30.7149 42.9388 29.9735 42.8001 29.0349H44.2401C44.4001 29.5682 44.7308 29.9949 45.2321 30.3149C45.7335 30.6455 46.3361 30.8109 47.0401 30.8109C47.8401 30.8109 48.4908 30.5602 48.9921 30.0589C49.5041 29.5575 49.7601 28.8535 49.7601 27.9469V26.1069C49.4721 26.6189 49.0455 27.0455 48.4801 27.3869C47.9148 27.7282 47.2535 27.8989 46.4961 27.8989C45.7175 27.8989 45.0081 27.7069 44.3681 27.3229C43.7388 26.9389 43.2428 26.4002 42.8801 25.7069C42.5175 25.0135 42.3361 24.2242 42.3361 23.3389C42.3361 22.4429 42.5175 21.6589 42.8801 20.9869C43.2428 20.3042 43.7388 19.7762 44.3681 19.4029C45.0081 19.0295 45.7175 18.8429 46.4961 18.8429ZM49.7601 23.3549C49.7601 22.6935 49.6268 22.1175 49.3601 21.6269C49.0935 21.1362 48.7308 20.7629 48.2721 20.5069C47.8241 20.2402 47.3281 20.1069 46.7841 20.1069C46.2401 20.1069 45.7441 20.2349 45.2961 20.4909C44.8481 20.7469 44.4908 21.1202 44.2241 21.6109C43.9575 22.1015 43.8241 22.6775 43.8241 23.3389C43.8241 24.0109 43.9575 24.5975 44.2241 25.0989C44.4908 25.5895 44.8481 25.9682 45.2961 26.2349C45.7441 26.4909 46.2401 26.6189 46.7841 26.6189C47.3281 26.6189 47.8241 26.4909 48.2721 26.2349C48.7308 25.9682 49.0935 25.5895 49.3601 25.0989C49.6268 24.5975 49.7601 24.0162 49.7601 23.3549ZM58.1246 18.8269C59.1913 18.8269 60.0553 19.1522 60.7166 19.8029C61.378 20.4429 61.7086 21.3709 61.7086 22.5869V27.7549H60.2686V22.7949C60.2686 21.9202 60.05 21.2535 59.6126 20.7949C59.1753 20.3255 58.578 20.0909 57.8206 20.0909C57.0526 20.0909 56.4393 20.3309 55.9806 20.8109C55.5326 21.2909 55.3086 21.9895 55.3086 22.9069V27.7549H53.8526V18.9869H55.3086V20.2349C55.5966 19.7869 55.986 19.4402 56.4766 19.1949C56.978 18.9495 57.5273 18.8269 58.1246 18.8269ZM70.1286 16.6029V27.7549H68.6726V16.6029H70.1286ZM77.0421 18.8269C78.1088 18.8269 78.9728 19.1522 79.6341 19.8029C80.2955 20.4429 80.6261 21.3709 80.6261 22.5869V27.7549H79.1861V22.7949C79.1861 21.9202 78.9675 21.2535 78.5301 20.7949C78.0928 20.3255 77.4955 20.0909 76.7381 20.0909C75.9701 20.0909 75.3568 20.3309 74.8981 20.8109C74.4501 21.2909 74.2261 21.9895 74.2261 22.9069V27.7549H72.7701V18.9869H74.2261V20.2349C74.5141 19.7869 74.9035 19.4402 75.3941 19.1949C75.8955 18.9495 76.4448 18.8269 77.0421 18.8269Z" fill="white"/>
</svg>
